<svg width="76" height="76" viewBox="0 0 76 76" fill="none" xmlns="http://www.w3.org/2000/svg">
<g filter="url(#filter0_dii_299_1438)">
<rect x="6" y="2" width="56" height="56" rx="28" fill="#A78BFA" shape-rendering="crispEdges"/>
<g clip-path="url(#clip0_299_1438)">
<path d="M44.5 34.6666V25.3333C44.4991 24.5005 44.0545 23.7313 43.3333 23.315L35.1667 18.6483C34.4447 18.2315 33.5553 18.2315 32.8333 18.6483L24.6667 23.315C23.9455 23.7313 23.5009 24.5005 23.5 25.3333V34.6666C23.5009 35.4994 23.9455 36.2686 24.6667 36.685L32.8333 41.3516C33.5553 41.7684 34.4447 41.7684 35.1667 41.3516L43.3333 36.685C44.0545 36.2686 44.4991 35.4994 44.5 34.6666V34.6666" stroke="white" stroke-width="2.91667" stroke-linecap="round" stroke-linejoin="round"/>
<path d="M23.8154 24.12L34.0004 30.0117L44.1854 24.12" stroke="white" stroke-width="2.91667" stroke-linecap="round" stroke-linejoin="round"/>
<path d="M34 41.76V30" stroke="white" stroke-width="2.91667" stroke-linecap="round" stroke-linejoin="round"/>
</g>
</g>
<defs>
<filter id="filter0_dii_299_1438" x="0" y="-1" width="76" height="77" filterUnits="userSpaceOnUse" color-interpolation-filters="sRGB">
<feFlood flood-opacity="0" result="BackgroundImageFix"/>
<feColorMatrix in="SourceAlpha" type="matrix" values="0 0 0 0 0 0 0 0 0 0 0 0 0 0 0 0 0 0 127 0" result="hardAlpha"/>
<feOffset dx="4" dy="8"/>
<feGaussianBlur stdDeviation="5"/>
<feComposite in2="hardAlpha" operator="out"/>
<feColorMatrix type="matrix" values="0 0 0 0 0.654902 0 0 0 0 0.545098 0 0 0 0 0.980392 0 0 0 0.9 0"/>
<feBlend mode="normal" in2="BackgroundImageFix" result="effect1_dropShadow_299_1438"/>
<feBlend mode="normal" in="SourceGraphic" in2="effect1_dropShadow_299_1438" result="shape"/>
<feColorMatrix in="SourceAlpha" type="matrix" values="0 0 0 0 0 0 0 0 0 0 0 0 0 0 0 0 0 0 127 0" result="hardAlpha"/>
<feOffset dx="2" dy="3"/>
<feGaussianBlur stdDeviation="3"/>
<feComposite in2="hardAlpha" operator="arithmetic" k2="-1" k3="1"/>
<feColorMatrix type="matrix" values="0 0 0 0 1 0 0 0 0 1 0 0 0 0 1 0 0 0 0.4 0"/>
<feBlend mode="normal" in2="shape" result="effect2_innerShadow_299_1438"/>
<feColorMatrix in="SourceAlpha" type="matrix" values="0 0 0 0 0 0 0 0 0 0 0 0 0 0 0 0 0 0 127 0" result="hardAlpha"/>
<feOffset dx="-2" dy="-3"/>
<feGaussianBlur stdDeviation="3"/>
<feComposite in2="hardAlpha" operator="arithmetic" k2="-1" k3="1"/>
<feColorMatrix type="matrix" values="0 0 0 0 0 0 0 0 0 0 0 0 0 0 0 0 0 0 0.2 0"/>
<feBlend mode="normal" in2="effect2_innerShadow_299_1438" result="effect3_innerShadow_299_1438"/>
</filter>
<clipPath id="clip0_299_1438">
<rect width="28" height="28" fill="white" transform="translate(20 16)"/>
</clipPath>
</defs>
</svg>
